General
Complete name                    : K:HQ Movies & CollectionsThe.Waterboy.1998.720p.Bluray.X264The.Waterboy.1998.720p.Bluray.X264.mkv
Format                           : Matroska
File size                        : 4.37 GiB
Duration                         : 1h 29mn
Overall bit rate                 : 6 981 Kbps
Encoded date                     : UTC 2009-07-29 07:30:02
Writing application              : mkvmerge v2.0.0 ('After The Rain Has Fallen') built on Jan 13 2007 19:58:56
Writing library                  : libebml v0.7.7 + libmatroska v0.8.0

Video
ID                               : 1
Format                           : AVC
Format/Info                      : Advanced Video Codec
Format profile                   : High@L4.1
Format settings, CABAC           : Yes
Format settings, ReFrames        : 5 frames
Muxing mode                      : Container profile=Unknown@4.1
Codec ID                         : V_MPEG4/ISO/AVC
Duration                         : 1h 29mn
Bit rate                         : 5 333 Kbps
Nominal bit rate                 : 5 468 Kbps
Width                            : 1 280 pixels
Height                           : 696 pixels
Display aspect ratio             : 16/9
Frame rate                       : 23.976 fps
Resolution                       : 24 bits
Colorimetry                      : 4:2:0
Scan type                        : Progressive
Bits/(Pixel*Frame)               : 0.250
Stream size                      : 3.34 GiB (76%)
Writing library                  : x264 core 68 r1190 43773d2
Encoding settings                : cabac=1 / ref=5 / deblock=1:-1:-1 / analyse=0x3:0x113 / me=umh / subme=8 / psy_rd=1.0:0.0 / mixed_ref=1 / me_range=16 / chroma_me=1 / trellis=1 / 8x8dct=1 / cqm=0 / deadzone=21,11 / chroma_qp_offset=-2 / threads=6 / nr=0 / decimate=1 / mbaff=0 / bframes=3 / b_pyramid=1 / b_adapt=1 / b_bias=0 / direct=3 / wpredb=1 / keyint=250 / keyint_min=25 / scenecut=40 / rc=2pass / bitrate=5468 / ratetol=1.0 / qcomp=0.60 / qpmin=10 / qpmax=51 / qpstep=4 / cplxblur=20.0 / qblur=0.5 / ip_ratio=1.40 / pb_ratio=1.30 / aq=1:1.10
Language                         : English

Audio
ID                               : 2
Format                           : DTS
Format/Info                      : Digital Theater Systems
Codec ID                         : A_DTS
Duration                         : 1h 29mn
Bit rate mode                    : Constant
Bit rate                         : 1 510 Kbps
Channel(s)                       : 6 channels
Channel positions                : Front: L C R, Surround: L R, LFE
Sampling rate                    : 48.0 KHz
Resolution                       : 24 bits
Stream size                      : 968 MiB (22%)
Language                         : English

Text
ID                               : 3
Format                           : UTF-8
Codec ID                         : S_TEXT/UTF8
Codec ID/Info                    : UTF-8 Plain Text
Language                         : English

--------------------------------------------------------------------

Rating : 5.7/10 
Language : English
Country : USA
 
http://www.imdb.com/title/tt0120484/

Plot : A football team water boy discovers he has a unique tackling ability and becomes a member of the team.

Cast : Adam Sandler, Kathy Bates, Fairuza Balk, Henry Winkler, Jerry Reed 

Enjoy =) 


